<svg xmlns="http://www.w3.org/2000/svg" width="44.843" height="45.22" viewBox="0 0 44.843 45.22">
  <path id="Forma_1" data-name="Forma 1" class="cls-1" d="M614.51,1511.97a19.151,19.151,0,0,1-6.594-1.41c-5.433-2.07-11.342-6.15-16.641-11.49s-9.346-11.31-11.4-16.79c-1.865-4.98-1.87-9.07-.015-10.94,0.269-.27.542-0.56,0.822-0.85,1.694-1.8,3.652-3.84,6.142-3.73,1.749,0.08,3.443,1.17,5.18,3.35,5.121,6.42,2.813,8.71.14,11.37l-0.473.47c-0.438.44-1.265,2.48,6.424,10.23a42.464,42.464,0,0,0,6.359,5.51c1.078,0.71,3,1.77,3.791.97l0.475-.48c2.63-2.69,4.9-5.01,11.271.15,2.158,1.75,3.242,3.46,3.315,5.22,0.1,2.56-1.917,4.5-3.7,6.2-0.292.28-.579,0.56-0.844,0.82A5.821,5.821,0,0,1,614.51,1511.97Zm-27.861-43.69c-1.8,0-3.43,1.73-4.87,3.25-0.291.31-.573,0.61-0.849,0.89-1.381,1.39-1.239,5.05.359,9.33,1.976,5.28,5.9,11.05,11.052,16.24s10.871,9.16,16.107,11.15c4.239,1.61,7.871,1.75,9.252.36,0.276-.28.57-0.56,0.871-0.85,1.551-1.49,3.307-3.17,3.232-5.04-0.053-1.28-.979-2.66-2.754-4.1-5.308-4.3-6.79-2.78-9.251-.26l-0.483.49c-1.171,1.19-3.082.93-5.679-.78a44.225,44.225,0,0,1-6.6-5.7h0c-6.381-6.44-8.422-10.37-6.424-12.39l0.481-.48c2.5-2.48,4.008-3.98-.258-9.33-1.427-1.79-2.795-2.72-4.066-2.78h-0.117Zm28.125,17.17a0.713,0.713,0,0,1-.283-0.06,0.761,0.761,0,0,1-.415-0.99,6.422,6.422,0,0,0-1.393-6.92,6.345,6.345,0,0,0-7.092-1.31,0.74,0.74,0,0,1-1-.38,0.755,0.755,0,0,1,.375-1,7.838,7.838,0,0,1,8.78,1.61,7.957,7.957,0,0,1,1.724,8.57A0.768,0.768,0,0,1,614.774,1485.45Zm6.732,2.75a0.721,0.721,0,0,1-.284-0.06,0.748,0.748,0,0,1-.414-0.98,13.783,13.783,0,0,0-2.987-14.86,13.587,13.587,0,0,0-15.224-2.8,0.761,0.761,0,0,1-.621-1.39,15.082,15.082,0,0,1,16.911,3.11,15.31,15.31,0,0,1,3.317,16.51A0.756,0.756,0,0,1,621.506,1488.2Z" transform="translate(-578.469 -1466.75)"/>
</svg>