<svg xmlns="http://www.w3.org/2000/svg" width="36" height="36" viewBox="0 0 36 36">
  <path id="icon" class="cls-1" d="M267.842,1851.14a3.3,3.3,0,0,0-2.383-1.09,3.442,3.442,0,0,0-2.413,1.08l-2.316,2.32c-0.2-.12-0.4-0.22-0.605-0.32a6.611,6.611,0,0,1-.717-0.38,24.69,24.69,0,0,1-5.947-5.42,14.2,14.2,0,0,1-1.972-3.13c0.6-.55,1.165-1.12,1.711-1.68,0.2-.2.4-0.41,0.605-0.61a3.2,3.2,0,0,0,0-4.86l-1.965-1.97c-0.224-.22-0.456-0.45-0.672-0.67-0.434-.45-0.882-0.91-1.353-1.34a3.336,3.336,0,0,0-2.368-1.04,3.457,3.457,0,0,0-2.4,1.04c-0.008.01-.008,0.01-0.015,0.01l-2.465,2.47a5.154,5.154,0,0,0-1.539,3.29,12.274,12.274,0,0,0,.918,5.31,30.845,30.845,0,0,0,5.5,9.16,33.844,33.844,0,0,0,11.266,8.81,17.817,17.817,0,0,0,6.32,1.87c0.15,0,.307.01,0.449,0.01a5.354,5.354,0,0,0,4.1-1.76c0.008-.01.023-0.02,0.03-0.03a16.271,16.271,0,0,1,1.263-1.31c0.306-.29.627-0.6,0.933-0.93a3.254,3.254,0,0,0-.014-4.85Zm2.69,7.58h0c-0.284.3-.575,0.58-0.882,0.88a18.979,18.979,0,0,0-1.382,1.43,3.525,3.525,0,0,1-2.764,1.17c-0.112,0-.224,0-0.336-0.01a15.746,15.746,0,0,1-5.656-1.69,32.1,32.1,0,0,1-10.668-8.34,29.215,29.215,0,0,1-5.207-8.64,10.352,10.352,0,0,1-.814-4.54,3.392,3.392,0,0,1,1.023-2.18l2.458-2.45a1.644,1.644,0,0,1,1.151-.53,1.549,1.549,0,0,1,1.1.52c0.008,0.01.015,0.01,0.023,0.02,0.44,0.41.859,0.84,1.3,1.29,0.224,0.22.455,0.46,0.687,0.69l1.965,1.97a1.448,1.448,0,0,1,0,2.33c-0.209.21-.411,0.42-0.62,0.62-0.613.62-1.188,1.2-1.816,1.76a0.146,0.146,0,0,0-.037.04,1.357,1.357,0,0,0-.351,1.55l0.022,0.06a15.6,15.6,0,0,0,2.316,3.77l0.008,0.01a26.456,26.456,0,0,0,6.38,5.8,7.648,7.648,0,0,0,.881.48,6.619,6.619,0,0,1,.718.39,0.789,0.789,0,0,0,.082.04,1.573,1.573,0,0,0,.679.17,1.472,1.472,0,0,0,1.046-.47l2.466-2.47a1.672,1.672,0,0,1,1.143-.55,1.586,1.586,0,0,1,1.1.54c0.008,0.01.008,0.01,0.015,0.01l3.974,3.97A1.523,1.523,0,0,1,270.532,1858.72Zm-8.965-22.74a0.89,0.89,0,0,0,.9-0.9,0.885,0.885,0,0,0-.261-0.63,0.905,0.905,0,0,0-1.27,0,0.886,0.886,0,0,0-.262.63A0.891,0.891,0,0,0,261.567,1835.98Zm2.966,0.99a0.92,0.92,0,0,0,.8-0.48,0.9,0.9,0,1,0-1.21.38A0.866,0.866,0,0,0,264.533,1836.97Zm3.16,1.59a0.905,0.905,0,1,0-.635.26A0.9,0.9,0,0,0,267.693,1838.56Zm0.807,1.1a0.882,0.882,0,0,0-.381,1.2,0.894,0.894,0,0,0,.8.49,0.847,0.847,0,0,0,.411-0.1A0.9,0.9,0,1,0,268.5,1839.66Zm0.515,3.75a0.9,0.9,0,1,0,1.793,0,0.9,0.9,0,0,0-.261-0.63,0.905,0.905,0,0,0-1.27,0A0.9,0.9,0,0,0,269.015,1843.41Zm-8.4-1.58a3.113,3.113,0,0,1,1.673.87,3.054,3.054,0,0,1,.867,1.67,0.9,0.9,0,0,0,.881.75,0.762,0.762,0,0,0,.15-0.02,0.892,0.892,0,0,0,.732-1.03,4.924,4.924,0,0,0-4-4,0.9,0.9,0,0,0-1.031.73A0.88,0.88,0,0,0,260.611,1841.83Zm16.376,1.14A18.382,18.382,0,0,0,262,1828.01a0.9,0.9,0,0,0-1.031.73,0.892,0.892,0,0,0,.732,1.03,16.58,16.58,0,0,1,13.523,13.5,0.9,0.9,0,0,0,.881.75,0.782,0.782,0,0,0,.15-0.02A0.882,0.882,0,0,0,276.987,1842.97Z" transform="translate(-241 -1828)"/>
</svg>