<svg xmlns="http://www.w3.org/2000/svg" width="60" height="45" viewBox="0 0 60 45">
  <path id="Forma_1" data-name="Forma 1" class="cls-1" d="M629.976,1719.16a5.58,5.58,0,0,0-.536-1.97,5.632,5.632,0,0,0-4.6-3.17c-0.154-.01-0.31-0.02-0.468-0.02h-48.75c-0.159,0-.314.01-0.469,0.02a5.632,5.632,0,0,0-4.6,3.17,5.559,5.559,0,0,0-.536,1.97c-0.013.15-.024,0.31-0.024,0.46v33.75c0,0.16.011,0.32,0.024,0.47a5.632,5.632,0,0,0,5.132,5.14c0.155,0.01.31,0.02,0.469,0.02h48.75c0.158,0,.314-0.01.469-0.02a5.632,5.632,0,0,0,5.132-5.14c0.013-.15.024-0.31,0.024-0.47v-33.75C630,1719.47,629.989,1719.31,629.976,1719.16Zm-53.414-3.29a3.634,3.634,0,0,1,.469.03c0.155-.01.31-0.03,0.469-0.03h45c0.158,0,.314.02,0.469,0.03a3.634,3.634,0,0,1,.469-0.03,4.689,4.689,0,0,1,3.3,1.37l-21.265,21.26-0.668.67-0.658.66c-0.111.11-.229,0.21-0.347,0.31h0a4.326,4.326,0,0,1-.315.35,4.779,4.779,0,0,1-.429.38,0.782,0.782,0,0,1-.12.08c-0.119.09-.242,0.17-0.368,0.25l-0.1.06a4.617,4.617,0,0,1-1.054.43h0a6.288,6.288,0,0,1-2.819,0h0a4.643,4.643,0,0,1-1.055-.43l-0.1-.06c-0.126-.08-0.249-0.16-0.369-0.25a0.775,0.775,0,0,1-.119-0.08,4.933,4.933,0,0,1-.43-0.38,4.509,4.509,0,0,1-.314-0.35h0c-0.119-.1-0.236-0.2-0.347-0.31l-0.659-.66-0.667-.67-21.265-21.26A4.687,4.687,0,0,1,576.562,1715.87Zm51.563,5.63v30c0,0.16-.011.31-0.024,0.47,0.015,0.15.024,0.31,0.024,0.47a4.68,4.68,0,0,1-4.687,4.68,3.641,3.641,0,0,1-.469-0.02H579.005l-0.013.02H577.5c-0.159,0-.314-0.01-0.469-0.02a3.641,3.641,0,0,1-.469.02,4.68,4.68,0,0,1-4.687-4.68,4.479,4.479,0,0,1,.024-0.47c-0.013-.16-0.024-0.31-0.024-0.47v-30c0-.16.011-0.31,0.024-0.47a4.479,4.479,0,0,1-.024-0.47,4.621,4.621,0,0,1,.332-1.72l23.643,23.64c0.111,0.11.229,0.21,0.348,0.31a5.585,5.585,0,0,0,3.291,1.32h0.034c0.159,0.01.317,0,.477,0s0.318,0.01.477,0h0.034a5.59,5.59,0,0,0,3.291-1.32c0.119-.1.237-0.2,0.348-0.31l23.643-23.64a4.621,4.621,0,0,1,.332,1.72c0,0.16-.009.32-0.024,0.47C628.114,1721.19,628.125,1721.34,628.125,1721.5Zm-42.187,30h-9.376a0.935,0.935,0,1,0,0,1.87h9.376A0.935,0.935,0,1,0,585.938,1751.5Z" transform="translate(-570 -1714)"/>
</svg>