<svg xmlns="http://www.w3.org/2000/svg" width="45" height="45" viewBox="0 0 45 45">
  <path id="Forma_1" data-name="Forma 1" class="cls-1" d="M599.5,1980.5a5.25,5.25,0,1,0-5.25-5.25A5.259,5.259,0,0,0,599.5,1980.5Zm0-9a3.75,3.75,0,1,1-3.75,3.75A3.753,3.753,0,0,1,599.5,1971.5Zm-0.133,30.57,11.506-16.62c4.315-5.75,3.691-15.21-1.336-20.24a14.389,14.389,0,0,0-20.34,0c-5.027,5.03-5.651,14.49-1.353,20.22Zm-9.109-35.8a12.891,12.891,0,0,1,18.219,0c4.537,4.54,5.1,13.08,1.179,18.3l-10.289,14.86-10.306-14.88C585.161,1979.35,585.721,1970.81,590.258,1966.27Zm18.33,26.98a0.75,0.75,0,0,0-.176,1.49c7.887,0.93,12.088,3.43,12.088,4.88,0,2.04-7.989,4.88-21,4.88s-21-2.84-21-4.88c0-1.45,4.2-3.95,12.088-4.88a0.744,0.744,0,0,0,.657-0.83,0.752,0.752,0,0,0-.833-0.66c-7.9.93-13.412,3.55-13.412,6.37,0,3.17,7.729,6.38,22.5,6.38s22.5-3.21,22.5-6.38C622,1996.8,616.484,1994.18,608.588,1993.25Z" transform="translate(-577 -1961)"/>
</svg>