<svg xmlns="http://www.w3.org/2000/svg" width="33" height="41" viewBox="0 0 33 41">
  <path id="icon" class="cls-1" d="M257.5,1737a16.474,16.474,0,0,0-16.5,16.41,16.25,16.25,0,0,0,.292,3.09c0.009,0.05.043,0.24,0.112,0.54a16.4,16.4,0,0,0,1.108,3.24c1.786,4.18,5.72,10.6,14.344,17.5a1.038,1.038,0,0,0,.644.22,1.1,1.1,0,0,0,.644-0.22c8.624-6.9,12.558-13.32,14.344-17.5a16.771,16.771,0,0,0,1.108-3.24c0.077-.31.1-0.5,0.112-0.55a16.15,16.15,0,0,0,.292-3.08A16.474,16.474,0,0,0,257.5,1737Zm14.172,19.13c0,0.02-.008.04-0.008,0.05-0.009.05-.035,0.18-0.086,0.39v0.01a14.4,14.4,0,0,1-.971,2.84,0.205,0.205,0,0,0-.017.04c-1.641,3.86-5.248,9.76-13.1,16.19-7.85-6.43-11.449-12.33-13.1-16.19a0.128,0.128,0,0,1-.017-0.04,14.562,14.562,0,0,1-.971-2.84v-0.01c-0.052-.21-0.077-0.35-0.086-0.39a0.476,0.476,0,0,1-.009-0.05,14.437,14.437,0,1,1,28.629-2.72A13.708,13.708,0,0,1,271.672,1756.13Zm-23.56-1.5a1.031,1.031,0,0,0,1.031-1.03h0v-0.01a1.031,1.031,0,0,0-2.062,0v0.01h0a1.019,1.019,0,0,0,1.031,1.03h0Zm3.1-6.96a1.01,1.01,0,0,0,.687-0.27h0a1.027,1.027,0,0,0,.077-1.45,1.039,1.039,0,0,0-1.452-.08h0a1.041,1.041,0,0,0-.077,1.46A1.011,1.011,0,0,0,251.213,1747.67Zm7.154-2.36c0.035,0,.069.01,0.1,0.01A1.085,1.085,0,1,0,258.367,1745.31Zm0.018,16.55a1.022,1.022,0,0,0,.1,2.04,0.452,0.452,0,0,0,.111-0.01h0A1.021,1.021,0,1,0,258.385,1761.86Zm-3.453-.36a1.032,1.032,0,0,0-1.3.66,1.016,1.016,0,0,0,.661,1.28,0.9,0.9,0,0,0,.318.06A1.025,1.025,0,0,0,254.932,1761.5Zm-0.335-15.77a1.177,1.177,0,0,0,.318-0.05,1.026,1.026,0,1,0-1.3-.66A1.027,1.027,0,0,0,254.6,1745.73Zm7.077,0.65a1.087,1.087,0,0,0,.516.14,1.008,1.008,0,0,0,.893-0.52A1.029,1.029,0,1,0,261.674,1746.38Zm4.037,11.85a1.032,1.032,0,0,0-1.443.24,1.016,1.016,0,0,0,.232,1.43,1.041,1.041,0,0,0,.6.2A1.037,1.037,0,0,0,265.711,1758.23Zm1.194-3.72a1.027,1.027,0,1,0-.421,2.01,1.563,1.563,0,0,0,.215.02,1.031,1.031,0,0,0,1-.81h0A1.04,1.04,0,0,0,266.9,1754.51Zm-14.988,5.26a1.05,1.05,0,0,0-1.46.08,1.029,1.029,0,0,0,.764,1.71,1,1,0,0,0,.765-0.34A1.021,1.021,0,0,0,251.917,1759.77Zm13.176-10.66a1.135,1.135,0,0,0,.61-0.19,1.036,1.036,0,0,0,.223-1.44h0a1.037,1.037,0,0,0-1.443-.22A1.023,1.023,0,0,0,265.093,1749.11Zm-3.4,11.67a1.022,1.022,0,0,0,.516,1.91,1.068,1.068,0,0,0,.515-0.13A1.029,1.029,0,1,0,261.691,1760.78Zm4.785-10.15a1.028,1.028,0,0,0-.791,1.22,1.042,1.042,0,0,0,1,.81,0.8,0.8,0,0,0,.215-0.03A1.023,1.023,0,1,0,266.476,1750.63Zm-17.978.1a1.068,1.068,0,0,0,1.366-.52,1.009,1.009,0,0,0-.524-1.35A1.025,1.025,0,1,0,248.5,1750.73Zm0.009,5.74a1.011,1.011,0,0,0-.515,1.35,1.022,1.022,0,0,0,.944.61,0.912,0.912,0,0,0,.421-0.09,1.023,1.023,0,0,0,.516-1.36A1.046,1.046,0,0,0,248.507,1756.47Z" transform="translate(-241 -1737)"/>
</svg>