<svg xmlns="http://www.w3.org/2000/svg" width="34" height="34" viewBox="0 0 34 34">
  <path id="icon" class="cls-1" d="M272.7,1919.79a1.705,1.705,0,0,0-2.138-.64l-30.33,13.29a2.067,2.067,0,0,0-.223,3.67l9.885,5.84,6.133,10.06a2.066,2.066,0,0,0,3.662-.26l13.143-30.33A1.715,1.715,0,0,0,272.7,1919.79Zm-1.4.96-13.143,30.35a0.383,0.383,0,0,1-.362.23,0.373,0.373,0,0,1-.334-0.18l-6.244-10.25a0.863,0.863,0,0,0-.286-0.29l-10.073-5.93a0.392,0.392,0,0,1,.042-0.7l30.324-13.3a0.041,0.041,0,0,1,.028-0.01,0.089,0.089,0,0,1,.048.04C271.311,1920.71,271.318,1920.73,271.3,1920.75Zm-16.721,15.36a0.839,0.839,0,0,0-.007,1.18,0.816,0.816,0,0,0,.592.25,0.843,0.843,0,0,0,.591-1.43A0.822,0.822,0,0,0,254.583,1936.11Zm-2.339,2.32a0.839,0.839,0,0,0-.007,1.18,0.816,0.816,0,0,0,.592.25,0.843,0.843,0,0,0,.591-1.43A0.822,0.822,0,0,0,252.244,1938.43Zm7-6.96a0.839,0.839,0,0,0-.007,1.18,0.8,0.8,0,0,0,.592.25,0.858,0.858,0,0,0,.592-0.25A0.833,0.833,0,1,0,259.247,1931.47Zm-2.332,2.32a0.839,0.839,0,0,0-.007,1.18,0.8,0.8,0,0,0,.592.25,0.844,0.844,0,0,0,.592-1.43A0.823,0.823,0,0,0,256.915,1933.79Zm11.674-11.6a0.839,0.839,0,0,0-.007,1.18,0.818,0.818,0,0,0,.592.25,0.844,0.844,0,0,0,.592-1.43A0.823,0.823,0,0,0,268.589,1922.19Zm-7,6.96a0.839,0.839,0,0,0-.007,1.18,0.8,0.8,0,0,0,.592.25,0.858,0.858,0,0,0,.592-0.25A0.833,0.833,0,1,0,261.586,1929.15Zm4.671-4.64a0.839,0.839,0,0,0-.007,1.18,0.816,0.816,0,0,0,.592.25,0.829,0.829,0,0,0,.585-0.25,0.839,0.839,0,0,0,.007-1.18A0.823,0.823,0,0,0,266.257,1924.51Zm-2.339,2.32a0.839,0.839,0,0,0-.007,1.18,0.816,0.816,0,0,0,.592.25,0.858,0.858,0,0,0,.592-0.25A0.833,0.833,0,1,0,263.918,1926.83Z" transform="translate(-239 -1919)"/>
</svg>