<svg xmlns="http://www.w3.org/2000/svg" xmlns:xlink="http://www.w3.org/1999/xlink" width="21" height="21" viewBox="0 0 21 21">
  <path id="icon" class="cls-1" d="M1186.06,1346.07l-1.67-1.65a9.327,9.327,0,0,0,.79-3.84,9.59,9.59,0,1,0-9.55,9.59,9.124,9.124,0,0,0,3.86-.79l1.66,1.66a3.364,3.364,0,0,0,2.28.96,3.65,3.65,0,0,0,2.54-1.05,3.523,3.523,0,0,0,.09-4.88h0Zm-10.43,2.36a7.845,7.845,0,1,1,7.89-7.85A7.838,7.838,0,0,1,1175.63,1348.43Zm9.11,1.22a1.675,1.675,0,0,1-2.36.08l-1.32-1.3a9.516,9.516,0,0,0,2.46-2.44l1.31,1.3A1.667,1.667,0,0,1,1184.74,1349.65Zm-7.44-14.91a6.129,6.129,0,0,0-4.64.53,6.03,6.03,0,0,0-2.89,3.66,0.761,0.761,0,0,0,.61,1.04h0.26a1.065,1.065,0,0,0,.88-0.61,4.359,4.359,0,0,1,5.43-2.96,0.831,0.831,0,0,0,1.05-.61,0.892,0.892,0,0,0-.7-1.05h0Z" transform="translate(-1166 -1331)"/>
</svg>